<svg width="51" height="45" viewBox="0 0 51 45" fill="none" xmlns="http://www.w3.org/2000/svg">
<path d="M44.625 2.9673C42.1207 1.39895 39.1539 0.737751 36.2205 1.09427C33.2872 1.4508 30.5652 2.80342 28.5095 4.92601L25.5069 7.88172H25.4365L22.469 4.92601C20.4133 2.80342 17.6913 1.4508 14.758 1.09427C11.8247 0.737751 8.85784 1.39895 6.35349 2.9673C4.88993 3.91509 3.65613 5.17726 2.74182 6.66197C1.82752 8.14669 1.25572 9.8166 1.0681 11.5501C0.880478 13.2837 1.08172 15.0372 1.6572 16.6831C2.23267 18.3291 3.16789 19.8261 4.39478 21.065L25.3544 43.1975L25.7766 42.7753L25.9057 42.9043L46.6189 21.065C47.8441 19.8237 48.777 18.3246 49.3497 16.6772C49.9224 15.0297 50.1205 13.2752 49.9295 11.5416C49.7384 9.8079 49.1632 8.13866 48.2456 6.65539C47.3279 5.17212 46.0911 3.91217 44.625 2.9673Z" fill="white" stroke="white" stroke-width="2" stroke-linecap="round" stroke-linejoin="round"/>
</svg>
