<svg width="20" height="18" viewBox="0 0 20 18" fill="none" xmlns="http://www.w3.org/2000/svg">
<path d="M17.0255 1.72268C16.1056 1.14655 15.0157 0.903664 13.9382 1.03463C12.8606 1.1656 11.8607 1.66248 11.1055 2.44221L10.0025 3.52798H9.97667L8.88659 2.44221C8.13142 1.66248 7.13149 1.1656 6.05395 1.03463C4.9764 0.903664 3.88655 1.14655 2.96659 1.72268C2.42895 2.07085 1.97572 2.5345 1.63985 3.07991C1.30399 3.62532 1.09394 4.23875 1.02502 4.87556C0.956094 5.51237 1.03002 6.15652 1.24142 6.76116C1.45282 7.36579 1.79637 7.91569 2.24706 8.37083L9.94651 16.5011L10.1016 16.346L10.149 16.3934L17.758 8.37083C18.208 7.91481 18.5508 7.36415 18.7611 6.75896C18.9715 6.15377 19.0443 5.50928 18.9741 4.87242C18.9039 4.23555 18.6926 3.62237 18.3555 3.07749C18.0184 2.53261 17.5641 2.06978 17.0255 1.72268Z" fill="#EA4335" stroke="#EA4335" stroke-width="2" stroke-linecap="round" stroke-linejoin="round"/>
</svg>
