<svg width="43" height="43" viewBox="0 0 43 43" fill="none" xmlns="http://www.w3.org/2000/svg">
<path d="M21.5002 7.16683C24.9581 7.16683 30.4585 9.67516 30.4585 16.3939C30.4585 20.2639 27.3768 24.761 21.5002 29.5089C15.6235 24.761 12.5418 20.246 12.5418 16.3939C12.5418 9.67516 18.0422 7.16683 21.5002 7.16683ZM21.5002 3.5835C15.6414 3.5835 8.9585 7.991 8.9585 16.3939C8.9585 21.9839 13.1331 27.8785 21.5002 34.0418C29.8672 27.8785 34.0418 21.9839 34.0418 16.3939C34.0418 7.991 27.3589 3.5835 21.5002 3.5835Z" fill="black"/>
<path d="M21.5002 12.5418C19.5293 12.5418 17.9168 14.1543 17.9168 16.1252C17.9168 18.096 19.5293 19.7085 21.5002 19.7085C22.4505 19.7085 23.362 19.331 24.034 18.659C24.706 17.987 25.0835 17.0755 25.0835 16.1252C25.0835 15.1748 24.706 14.2634 24.034 13.5914C23.362 12.9194 22.4505 12.5418 21.5002 12.5418ZM8.9585 35.8335H34.0418V39.4168H8.9585V35.8335Z" fill="black"/>
</svg>
