<svg width="32" height="32" viewBox="0 0 32 32" fill="none" xmlns="http://www.w3.org/2000/svg">
<path d="M15.9997 7.86665C17.5463 7.86665 18.7997 9.11998 18.7997 10.6666C18.7997 12.2133 17.5463 13.4666 15.9997 13.4666C14.453 13.4666 13.1997 12.2133 13.1997 10.6666C13.1997 9.11998 14.453 7.86665 15.9997 7.86665ZM15.9997 19.8666C19.9597 19.8666 24.133 21.8133 24.133 22.6666V24.1333H7.86634V22.6666C7.86634 21.8133 12.0397 19.8666 15.9997 19.8666ZM15.9997 5.33331C13.053 5.33331 10.6663 7.71998 10.6663 10.6666C10.6663 13.6133 13.053 16 15.9997 16C18.9463 16 21.333 13.6133 21.333 10.6666C21.333 7.71998 18.9463 5.33331 15.9997 5.33331ZM15.9997 17.3333C12.4397 17.3333 5.33301 19.12 5.33301 22.6666V26.6666H26.6663V22.6666C26.6663 19.12 19.5597 17.3333 15.9997 17.3333Z" fill="black"/>
</svg>
