<svg width="38" height="40" viewBox="0 0 38 40" fill="none" xmlns="http://www.w3.org/2000/svg">
<path d="M32.6865 37.9997H5.06938C4.64558 38.0022 4.23585 37.8477 3.91927 37.566C3.60269 37.2842 3.4017 36.8952 3.35509 36.474L2.00082 16.1511C1.99368 15.9241 2.03313 15.698 2.11675 15.4868C2.20038 15.2755 2.32639 15.0837 2.48702 14.9231C2.64765 14.7624 2.83951 14.6364 3.05072 14.5528C3.26194 14.4692 3.48805 14.4297 3.7151 14.4369H34.3236C34.7783 14.4369 35.2143 14.6175 35.5358 14.939C35.8573 15.2604 36.0379 15.6965 36.0379 16.1511L34.4008 36.4911C34.3502 36.9092 34.1475 37.2941 33.8314 37.5724C33.5152 37.8506 33.1076 38.0027 32.6865 37.9997V37.9997Z" stroke="#3A4651" stroke-width="3" stroke-linecap="round" stroke-linejoin="round"/>
<path d="M10.4434 20V10.5714C10.4434 8.29813 11.3464 6.11795 12.9539 4.5105C14.5613 2.90305 16.7415 2 19.0148 2C21.2881 2 23.4682 2.90305 25.0757 4.5105C26.6831 6.11795 27.5862 8.29813 27.5862 10.5714V20" stroke="#3A4651" stroke-width="3" stroke-linecap="round" stroke-linejoin="round"/>
</svg>
