<svg width="32" height="32" viewBox="0 0 32 32" fill="none" xmlns="http://www.w3.org/2000/svg">
<path d="M22.0621 17.3334C23.0621 17.3334 23.9421 16.7867 24.3954 15.96L29.1688 7.30669C29.6621 6.42669 29.0221 5.33335 28.0088 5.33335H8.27544L7.02211 2.66669H2.66211V5.33335H5.32878L10.1288 15.4534L8.32878 18.7067C7.35544 20.4934 8.63544 22.6667 10.6621 22.6667H26.6621V20H10.6621L12.1288 17.3334H22.0621ZM9.54211 8.00002H25.7421L22.0621 14.6667H12.7021L9.54211 8.00002ZM10.6621 24C9.19544 24 8.00878 25.2 8.00878 26.6667C8.00878 28.1334 9.19544 29.3334 10.6621 29.3334C12.1288 29.3334 13.3288 28.1334 13.3288 26.6667C13.3288 25.2 12.1288 24 10.6621 24ZM23.9954 24C22.5288 24 21.3421 25.2 21.3421 26.6667C21.3421 28.1334 22.5288 29.3334 23.9954 29.3334C25.4621 29.3334 26.6621 28.1334 26.6621 26.6667C26.6621 25.2 25.4621 24 23.9954 24Z" fill="black"/>
</svg>
