<svg width="68" height="68" viewBox="0 0 68 68" fill="none" xmlns="http://www.w3.org/2000/svg">
<g filter="url(#filter0_d_355_3520)">
<g clip-path="url(#clip0_355_3520)">
<path d="M4 30C4 13.4315 17.4315 0 34 0V0C50.5685 0 64 13.4315 64 30V30C64 46.5685 50.5685 60 34 60V60C17.4315 60 4 46.5685 4 30V30Z" fill="white"/>
<rect x="22" y="10" width="24" height="24" rx="12" fill="#082032"/>
<rect x="-11" y="40" width="90" height="90" rx="45" fill="#082032"/>
</g>
</g>
<defs>
<filter id="filter0_d_355_3520" x="0" y="0" width="68" height="68" filterUnits="userSpaceOnUse" color-interpolation-filters="sRGB">
<feFlood flood-opacity="0" result="BackgroundImageFix"/>
<feColorMatrix in="SourceAlpha" type="matrix" values="0 0 0 0 0 0 0 0 0 0 0 0 0 0 0 0 0 0 127 0" result="hardAlpha"/>
<feOffset dy="4"/>
<feGaussianBlur stdDeviation="2"/>
<feComposite in2="hardAlpha" operator="out"/>
<feColorMatrix type="matrix" values="0 0 0 0 0 0 0 0 0 0 0 0 0 0 0 0 0 0 0.25 0"/>
<feBlend mode="normal" in2="BackgroundImageFix" result="effect1_dropShadow_355_3520"/>
<feBlend mode="normal" in="SourceGraphic" in2="effect1_dropShadow_355_3520" result="shape"/>
</filter>
<clipPath id="clip0_355_3520">
<path d="M4 30C4 13.4315 17.4315 0 34 0V0C50.5685 0 64 13.4315 64 30V30C64 46.5685 50.5685 60 34 60V60C17.4315 60 4 46.5685 4 30V30Z" fill="white"/>
</clipPath>
</defs>
</svg>
